<?xml version="1.0" standalone="no"?>
<!DOCTYPE svg PUBLIC "-//W3C//DTD SVG 20010904//EN"
 "http://www.w3.org/TR/2001/REC-SVG-20010904/DTD/svg10.dtd">
<svg version="1.0" xmlns="http://www.w3.org/2000/svg"
 width="320.000000pt" height="320.000000pt" viewBox="0 0 320.000000 320.000000"
 preserveAspectRatio="xMidYMid meet">
<metadata>
Created by potrace 1.14, written by Peter Selinger 2001-2017
</metadata>
<g transform="translate(0.000000,320.000000) scale(0.100000,-0.100000)"
fill="#000000" stroke="none">
<path d="M580 2083 c0 -7 -9 -13 -19 -13 -11 0 -23 -4 -26 -10 -3 -5 -12 -10
-18 -10 -7 0 -6 4 3 10 9 6 10 10 3 10 -6 0 -15 -4 -18 -10 -3 -5 -20 -10 -36
-10 -18 0 -28 -4 -24 -10 4 -6 -6 -10 -24 -10 -16 0 -33 -4 -36 -10 -3 -5 -15
-10 -26 -10 -10 0 -19 -4 -19 -10 0 -5 -9 -10 -20 -10 -11 0 -20 -4 -20 -10 0
-5 -5 -10 -12 -10 -6 0 -26 -11 -45 -26 -18 -14 -33 -22 -33 -19 0 3 -25 -19
-55 -50 -30 -30 -55 -63 -55 -72 0 -15 -2 -16 -10 -3 -8 12 -10 11 -10 -7 0
-13 -4 -23 -10 -23 -5 0 -10 -9 -10 -19 0 -11 -4 -21 -10 -23 -5 -1 -11 -15
-12 -30 -1 -16 -6 -28 -10 -28 -4 0 -8 -13 -8 -28 0 -15 -6 -34 -12 -40 -10
-10 -10 -15 2 -22 11 -7 12 -10 2 -10 -10 0 -13 -29 -11 -135 1 -75 7 -138 12
-142 5 -3 3 -9 -4 -14 -10 -6 -11 -9 -1 -9 7 0 12 -14 12 -38 0 -21 6 -44 13
-51 10 -11 9 -12 -1 -6 -12 6 -12 3 -1 -16 7 -13 12 -25 11 -26 -12 -18 14
-23 124 -23 92 0 123 3 118 12 -5 7 -3 8 7 3 17 -11 50 -14 44 -5 -2 4 8 8 23
8 39 2 60 7 68 15 4 4 15 7 25 7 9 0 29 7 45 14 15 8 31 13 36 10 4 -3 8 0 8
5 0 6 6 11 13 11 7 0 23 9 35 20 12 11 26 20 32 20 18 0 120 108 120 127 0 15
2 16 10 3 8 -12 10 -11 10 8 0 12 5 22 10 22 6 0 10 9 10 20 0 11 5 20 10 20
6 0 10 9 10 20 0 11 5 20 10 20 6 0 10 15 10 33 0 24 3 28 10 17 7 -11 10 -3
10 28 0 32 3 41 13 36 8 -5 8 -2 -2 9 -9 11 -10 17 -2 17 6 0 11 12 11 26 0
14 5 34 10 44 7 13 7 21 0 25 -7 4 -7 11 -2 18 15 20 15 184 0 217 -13 29 -15
30 -85 30 -39 0 -74 4 -77 9 -3 4 -7 22 -8 40 -1 17 -6 31 -10 31 -4 0 -8 9
-8 20 0 17 -6 19 -40 17 -22 -1 -40 -6 -40 -12 0 -5 -5 -3 -10 5 -6 10 -10 11
-10 3z m82 -85 c4 -25 1 -28 -22 -28 -14 0 -32 -6 -39 -12 -11 -11 -12 -10 -6
2 6 12 5 13 -6 3 -7 -7 -31 -13 -54 -13 -23 0 -45 -4 -51 -10 -5 -5 -22 -11
-37 -12 -15 -1 -27 -6 -27 -10 0 -4 -9 -8 -20 -8 -11 0 -20 -4 -20 -8 0 -5 -7
-9 -15 -10 -8 -1 -22 -3 -30 -4 -8 -1 -12 -5 -9 -10 3 -4 -2 -8 -10 -8 -9 0
-16 -4 -16 -10 0 -5 -6 -10 -14 -10 -8 0 -17 -7 -20 -16 -4 -9 -9 -14 -13 -11
-6 7 -93 -83 -93 -96 0 -4 -9 -17 -20 -29 -11 -12 -20 -28 -20 -35 0 -8 -7
-25 -16 -38 -9 -14 -12 -25 -8 -25 5 0 4 -4 -1 -8 -14 -9 -35 -81 -35 -116 0
-18 -4 -26 -12 -23 -7 2 -12 9 -11 14 1 5 3 35 4 66 1 31 6 57 11 57 4 0 8 18
8 40 0 22 5 40 10 40 6 0 10 10 10 23 0 13 9 33 20 45 11 12 20 26 20 33 0 16
128 139 146 139 8 0 14 5 14 10 0 6 9 10 21 10 11 0 17 5 14 10 -3 6 3 10 15
10 12 0 28 7 37 15 8 8 19 13 24 10 5 -4 9 -1 9 4 0 6 12 11 26 11 14 0 23 4
20 9 -3 5 0 9 7 8 38 -1 68 4 63 11 -3 5 1 9 9 9 8 0 11 -5 8 -11 -4 -6 0 -5
9 2 9 7 32 13 51 14 20 1 34 5 31 10 -4 5 3 4 14 -3 11 -7 22 -25 24 -41z
m-52 -82 c0 -6 4 -5 8 2 6 9 36 12 113 10 l104 -3 2 -107 c2 -60 -1 -108 -5
-108 -7 0 -9 -13 -15 -90 -1 -14 -6 -28 -10 -31 -5 -3 -9 -20 -9 -37 -1 -17
-5 -29 -10 -26 -7 5 -13 -26 -9 -49 1 -5 -3 -6 -9 -2 -6 4 -10 -4 -10 -19 0
-14 -4 -26 -8 -26 -5 0 -15 -12 -23 -27 -8 -16 -22 -35 -31 -44 -10 -9 -18
-22 -18 -28 0 -7 -4 -9 -10 -6 -6 3 -10 -4 -10 -17 0 -15 -3 -19 -8 -11 -6 9
-12 7 -22 -7 -8 -11 -20 -20 -28 -20 -7 0 -10 -4 -7 -10 3 -5 -3 -10 -14 -10
-12 0 -21 -3 -21 -7 0 -11 -50 -33 -73 -33 -10 0 -15 -5 -12 -10 4 -6 3 -10
-2 -9 -28 5 -73 -2 -68 -11 4 -6 -8 -10 -29 -10 -19 0 -38 -5 -41 -10 -5 -8
-11 -8 -20 0 -9 8 -15 8 -20 0 -9 -14 -215 -14 -215 1 0 5 -4 8 -8 5 -10 -6
-9 65 1 82 5 7 4 19 -3 27 -8 10 -9 19 -3 28 5 6 11 37 12 67 2 30 8 61 14 69
9 12 9 13 0 7 -7 -4 -13 -3 -13 3 0 5 5 13 10 16 5 3 10 19 10 36 0 16 5 29
10 29 6 0 10 14 10 30 0 17 5 30 10 30 6 0 10 9 10 20 0 11 5 20 10 20 6 0 10
9 10 20 0 11 5 20 10 20 6 0 10 7 10 16 0 9 5 12 12 8 6 -4 8 -3 5 3 -4 6 14
33 41 60 48 49 53 53 74 53 6 0 8 3 5 7 -8 7 39 33 60 33 8 0 11 5 8 10 -4 6
5 10 20 10 14 0 24 4 21 8 -2 4 6 9 19 10 36 3 49 6 56 14 3 5 24 9 47 10 22
1 39 4 37 8 -2 4 2 7 10 7 8 0 15 -5 15 -11z"/>
<path d="M389 1788 c-8 -11 -13 -24 -11 -29 1 -5 -2 -9 -8 -9 -5 0 -10 -9 -10
-20 0 -11 -4 -20 -10 -20 -5 0 -10 -13 -10 -30 l0 -30 146 0 147 0 23 28 c15
16 24 40 24 60 0 17 5 32 10 32 6 0 10 9 10 20 0 20 -5 21 -148 19 -137 -1
-150 -3 -163 -21z m58 -31 c-5 8 2 11 22 11 19 -1 28 -5 24 -12 -4 -6 2 -4 12
4 15 12 19 13 23 1 4 -11 6 -11 12 0 7 10 12 10 26 -2 10 -8 15 -9 11 -2 -5 8
3 11 25 10 26 -2 34 -7 36 -25 7 -44 -18 -53 -135 -50 -107 3 -108 3 -105 27
5 35 24 52 41 37 11 -8 13 -8 8 1z"/>
<path d="M376 1621 c-4 -6 -18 -11 -30 -11 -17 0 -28 -10 -39 -32 -9 -18 -13
-36 -11 -40 3 -4 1 -8 -4 -8 -5 0 -12 -13 -14 -28 -5 -33 13 -57 31 -39 8 8
11 7 11 -3 0 -13 2 -13 10 0 7 11 12 12 21 3 9 -9 16 -9 31 0 15 10 20 9 27
-2 6 -9 11 -10 15 -2 4 6 14 11 22 11 8 0 12 -4 9 -10 -3 -5 -1 -10 4 -10 6 0
11 4 11 8 0 4 9 8 20 9 11 1 18 -1 16 -5 -3 -4 4 -8 14 -8 10 0 16 5 13 10 -4
5 1 7 10 3 18 -7 57 24 57 46 0 9 5 19 10 22 6 3 10 17 10 31 0 13 5 24 10 24
6 0 10 5 10 10 0 6 -11 10 -24 10 -14 0 -28 5 -31 10 -4 7 -13 7 -26 0 -14 -8
-19 -7 -19 2 0 9 -3 9 -11 -2 -8 -12 -12 -12 -16 -2 -4 10 -8 10 -19 1 -11 -9
-18 -9 -26 -1 -8 8 -17 8 -30 1 -13 -7 -18 -6 -18 3 0 9 -3 9 -10 -2 -8 -12
-11 -13 -19 -1 -6 9 -11 10 -15 2z m53 -50 c23 -2 31 1 26 9 -5 7 1 7 14 -2
18 -11 23 -11 31 2 6 10 10 11 10 3 0 -7 3 -12 8 -12 28 5 62 -3 62 -14 0 -25
-38 -56 -61 -50 -17 5 -20 3 -14 -7 6 -10 4 -11 -6 -4 -24 15 -62 17 -53 2 5
-10 4 -11 -7 0 -7 6 -19 12 -27 12 -8 0 -10 -5 -6 -12 6 -10 4 -10 -7 0 -15
13 -43 17 -35 4 3 -5 -1 -9 -9 -9 -8 0 -14 3 -13 6 2 19 -4 24 -12 11 -8 -13
-10 -12 -10 3 0 9 5 17 10 17 6 0 10 9 10 20 0 13 7 20 20 20 11 0 20 6 20 13
0 7 3 8 8 2 4 -6 22 -12 41 -14z"/>
<path d="M252 1414 c-7 -7 -13 -25 -14 -39 -1 -14 -6 -25 -10 -25 -4 0 -8 -11
-8 -24 0 -14 -5 -28 -10 -31 -22 -14 2 -22 65 -24 69 -1 105 13 105 41 0 9 5
18 11 20 5 2 11 18 11 35 1 18 5 30 10 27 4 -3 8 4 8 16 0 20 -5 21 -78 19
-49 -1 -82 -7 -90 -15z m106 -53 c-1 -16 -11 -34 -21 -41 -15 -9 -18 -9 -12 2
6 10 5 11 -6 1 -21 -20 -55 -16 -56 7 -1 11 2 20 8 20 5 0 9 9 9 20 0 17 7 20
40 20 38 0 40 -1 38 -29z"/>
<path d="M1333 1994 c-14 -14 -19 -237 -7 -268 7 -19 45 -21 63 -3 11 10 13
10 7 0 -4 -7 -3 -13 1 -13 5 0 15 6 22 13 11 10 12 9 6 -2 -5 -9 5 -5 23 8 18
12 32 29 32 37 0 8 4 13 9 10 4 -3 7 2 6 12 -7 68 -40 102 -100 102 -19 0 -35
5 -35 11 0 5 4 8 8 5 4 -2 9 5 9 17 2 17 0 19 -7 7 -8 -13 -10 -12 -10 3 0 11
8 17 21 17 11 0 18 4 15 9 -7 10 9 8 36 -3 11 -5 23 -2 33 7 19 20 19 27 -1
27 -8 0 -13 4 -10 8 6 10 -24 9 -40 -1 -6 -3 -14 -3 -18 0 -10 11 -37 12 -30
2 3 -5 1 -9 -5 -9 -5 0 -11 4 -13 9 -1 5 -9 3 -15 -5z m93 -158 c20 -21 17
-59 -6 -73 -20 -13 -54 -7 -44 8 3 5 0 9 -5 9 -6 0 -11 5 -11 11 0 5 5 7 10 4
6 -3 10 -2 10 4 0 5 -5 11 -12 13 -9 3 -8 9 2 21 19 20 37 21 56 3z"/>
<path d="M1611 1987 c-7 -14 -14 -36 -14 -50 -1 -14 -5 -23 -9 -20 -5 2 -8 -7
-8 -21 0 -13 -4 -26 -9 -28 -5 -1 -11 -19 -12 -38 -2 -19 -7 -37 -10 -40 -4
-3 -9 -20 -12 -38 -4 -24 -1 -35 9 -39 18 -7 31 5 36 32 5 31 24 45 60 45 29
0 34 -4 36 -26 2 -31 33 -66 40 -45 4 11 6 11 13 0 7 -11 9 -9 9 6 0 12 -4 25
-9 30 -5 6 -11 24 -13 40 -1 17 -6 32 -9 35 -4 3 -9 19 -12 35 -3 17 -10 45
-16 63 -5 17 -7 32 -3 32 4 0 2 4 -4 8 -6 4 -16 16 -22 27 -8 14 -12 16 -12 5
0 -11 -2 -12 -8 -2 -6 9 -12 6 -21 -11z m31 -92 c1 -11 7 -23 12 -26 5 -4 6
-15 3 -24 -9 -21 -49 -16 -53 8 -1 9 2 15 7 11 8 -5 14 35 9 61 -1 7 2 7 8 0
6 -5 12 -19 14 -30z"/>
<path d="M1816 1998 c3 -4 0 -8 -6 -8 -7 0 -10 -43 -9 -138 1 -127 2 -138 20
-139 10 -1 18 4 16 10 -1 7 3 11 9 10 6 -1 11 4 11 12 0 8 -4 12 -9 9 -4 -3
-8 -1 -8 5 0 5 6 12 13 14 10 4 10 6 0 6 -7 1 -13 6 -13 12 0 5 5 7 10 4 6 -3
10 -2 10 4 0 5 -6 11 -12 13 -10 4 -9 8 2 19 19 19 59 22 74 6 16 -16 18 -60
3 -69 -9 -6 -8 -8 2 -8 11 0 11 -3 0 -17 -8 -9 -9 -14 -2 -10 6 4 13 2 15 -5
2 -6 12 -12 21 -14 15 -2 17 12 16 149 0 84 -3 146 -6 139 -4 -10 -8 -10 -21
0 -9 8 -13 8 -9 2 4 -7 0 -14 -8 -18 -8 -3 -15 -11 -15 -18 0 -9 3 -8 10 2 8
11 9 9 8 -12 -1 -16 -7 -28 -13 -28 -5 0 -4 -4 3 -9 32 -20 8 -38 -46 -33 -35
3 -39 6 -39 32 0 16 3 27 7 25 4 -2 6 6 5 17 -1 12 -7 24 -13 26 -7 2 -10 7
-8 11 3 4 -1 8 -9 8 -8 0 -12 -4 -9 -9z"/>
<path d="M2072 1990 c-7 -12 -8 -20 -2 -20 5 0 10 -5 10 -11 0 -5 -3 -8 -8 -5
-4 2 -7 -37 -6 -87 1 -51 3 -92 4 -92 1 0 3 -8 5 -18 2 -9 -1 -15 -6 -11 -5 3
-9 1 -9 -3 0 -13 40 -34 50 -28 6 4 10 35 10 71 0 52 3 64 16 64 9 0 18 -9 21
-20 3 -11 10 -20 17 -20 6 0 4 -5 -4 -10 -10 -6 -11 -10 -2 -10 6 0 12 -12 12
-26 0 -14 6 -32 14 -40 16 -16 61 -20 51 -4 -3 6 -1 10 4 10 6 0 11 5 11 10 0
6 -7 10 -16 10 -8 0 -12 5 -9 10 3 6 1 10 -4 10 -6 0 -11 14 -11 30 0 17 -3
30 -8 30 -4 0 -13 9 -20 21 -8 12 -9 18 -3 14 7 -4 11 4 11 20 0 14 4 24 9 21
4 -3 7 6 5 19 -1 14 2 25 7 25 15 0 28 35 19 50 -7 12 -13 12 -34 0 -19 -10
-26 -21 -26 -44 0 -24 -3 -27 -10 -16 -5 8 -10 10 -10 5 0 -6 6 -17 13 -24 10
-11 10 -13 0 -7 -8 4 -13 1 -13 -8 0 -9 -9 -16 -20 -16 -17 0 -20 7 -20 50 0
36 -4 50 -14 50 -8 0 -16 5 -18 10 -2 6 -9 1 -16 -10z"/>
<path d="M1063 1605 c2 -288 3 -310 20 -313 16 -3 17 15 17 308 -1 260 -3 310
-15 300 -10 -8 -14 -8 -18 2 -3 7 -5 -126 -4 -297z"/>
<path d="M3086 1521 c-4 -6 -14 -11 -22 -11 -23 0 -44 -25 -46 -54 -1 -14 -6
-26 -11 -26 -13 0 -6 -111 9 -141 7 -15 10 -30 6 -34 -4 -3 0 -5 8 -3 8 2 14
-2 13 -7 -1 -6 8 -12 19 -12 12 -1 25 -8 29 -15 7 -10 9 -10 9 0 0 6 9 12 20
12 11 0 20 6 20 13 0 8 4 7 10 -3 8 -12 10 -10 10 8 0 13 4 20 10 17 6 -4 10
6 10 22 0 21 3 24 9 14 6 -10 9 14 9 67 0 45 -4 79 -9 76 -5 -3 -9 4 -9 16 0
12 -4 18 -10 15 -6 -4 -10 -3 -9 2 4 22 -3 33 -20 33 -11 0 -22 6 -24 13 -4 8
-6 7 -6 -3 -1 -12 -3 -13 -10 -1 -6 9 -11 10 -15 2z m8 -43 c-5 -8 -2 -9 9 -5
11 4 17 1 17 -8 0 -8 5 -15 10 -15 16 0 13 -149 -4 -166 -17 -16 -46 -19 -46
-3 0 5 -4 7 -10 4 -10 -6 -14 26 -10 74 1 17 -2 21 -12 15 -10 -6 -11 -4 -2 7
6 8 11 27 12 43 1 16 9 38 19 48 18 20 28 24 17 6z"/>
<path d="M1378 1512 l-58 -3 0 -139 0 -140 58 0 c33 1 65 7 76 15 20 15 42 54
40 70 -2 24 -17 66 -21 61 -3 -2 -13 3 -23 12 -20 16 -54 26 -45 13 2 -4 -2
-8 -10 -8 -8 0 -14 3 -13 6 2 19 -3 24 -11 12 -7 -10 -9 -4 -8 20 2 33 3 34
50 37 36 2 47 7 47 20 0 15 2 15 10 2 8 -13 10 -13 10 1 0 20 -25 25 -102 21z
m28 -154 c-7 11 -4 11 13 0 22 -13 30 -68 10 -68 -5 0 -7 -4 -4 -10 11 -18
-37 -11 -51 8 -16 20 -18 36 -4 27 6 -3 10 -1 10 4 0 6 -4 11 -10 11 -5 0 -10
5 -10 11 0 5 5 7 10 4 6 -3 10 1 10 11 0 14 2 15 17 3 13 -11 15 -11 9 -1z"/>
<path d="M2013 1513 c-7 -3 -13 -18 -13 -34 0 -18 4 -28 10 -24 6 4 10 -5 10
-19 0 -14 5 -26 10 -26 6 0 10 -13 10 -30 0 -16 5 -30 10 -30 6 0 10 -9 10
-20 0 -11 5 -20 10 -20 6 0 10 -9 10 -20 0 -16 -6 -19 -35 -18 -36 1 -60 -11
-37 -19 6 -3 10 -9 6 -14 -3 -5 15 -9 40 -9 35 0 46 4 46 16 0 8 5 12 10 9 6
-4 10 7 10 24 0 17 5 31 10 31 6 0 10 10 10 23 0 13 6 29 13 36 10 11 9 12 -1
6 -11 -5 -11 -3 -3 11 6 11 17 43 25 72 l15 52 -25 0 c-17 0 -24 -5 -24 -20 0
-11 -4 -20 -8 -20 -4 0 -9 -17 -10 -37 -2 -21 -7 -39 -12 -41 -6 -2 -10 -10
-10 -18 0 -27 -16 -6 -18 24 -3 35 -26 85 -35 75 -4 -3 -5 4 -2 15 4 21 -11
32 -32 25z"/>
<path d="M2853 1512 c-35 -3 -35 -2 -35 -87 0 -178 2 -195 18 -195 25 0 44 31
33 52 -7 13 -6 18 3 18 9 0 9 3 -2 10 -13 9 -13 11 0 20 8 5 10 10 5 10 -15 0
-17 50 -2 50 7 0 8 3 2 8 -16 11 -18 52 -3 52 9 0 9 3 -2 10 -11 7 0 10 38 10
47 0 52 2 52 23 0 19 -5 22 -37 22 -21 0 -53 -1 -70 -3z"/>
<path d="M1524 1498 c-4 -7 -3 -8 4 -4 8 5 12 -2 12 -18 0 -14 5 -26 10 -26 6
0 10 -13 10 -29 0 -16 4 -31 9 -33 5 -1 11 -14 13 -28 1 -14 11 -32 21 -41 17
-16 24 -50 10 -48 -5 1 -23 1 -40 0 -26 -1 -33 -5 -33 -21 0 -21 5 -23 60 -20
34 2 54 16 44 32 -3 4 0 8 5 8 6 0 11 8 11 18 0 10 4 22 10 28 5 5 10 28 12
51 2 22 6 39 11 36 6 -4 12 37 8 60 0 4 4 7 9 7 5 0 10 9 10 20 0 15 -7 20
-25 20 -19 0 -23 -4 -18 -17 4 -11 3 -14 -5 -9 -9 5 -12 -6 -12 -36 0 -33 -3
-39 -11 -28 -8 12 -10 12 -8 -5 2 -33 0 -45 -11 -45 -5 0 -10 9 -10 20 0 11
-4 20 -10 20 -5 0 -10 14 -10 30 0 17 -4 30 -10 30 -5 0 -10 9 -10 20 0 15 -7
20 -24 20 -14 0 -28 -5 -32 -12z"/>
<path d="M1780 1492 c0 -13 4 -21 8 -18 5 3 9 -1 9 -9 0 -8 -4 -12 -9 -9 -4 3
-8 -2 -8 -10 0 -8 5 -18 10 -21 7 -4 7 -12 0 -25 -5 -10 -10 -32 -10 -47 0
-31 -20 -83 -32 -83 -5 0 -8 -25 -8 -56 0 -34 4 -53 10 -49 6 3 10 1 10 -6 0
-7 6 -5 13 5 8 10 12 29 9 42 -4 23 -3 24 67 24 l71 0 0 -35 c0 -28 3 -33 17
-28 12 5 14 3 8 -8 -6 -11 -5 -11 5 -2 16 14 15 104 -1 114 -8 4 -11 45 -11
123 l1 116 -70 0 c-48 0 -69 -4 -69 -12 0 -9 -4 -8 -10 2 -8 12 -10 10 -10 -8z
m107 -42 c9 -13 9 -21 2 -25 -6 -5 -6 -12 3 -23 10 -12 10 -14 1 -8 -14 8 -18
-6 -6 -18 10 -10 13 -37 3 -31 -4 2 -7 -6 -7 -20 0 -14 3 -22 8 -19 14 8 10
-6 -6 -22 -15 -15 -85 -17 -85 -2 0 4 5 8 10 8 6 0 10 13 10 29 0 17 5 33 10
36 8 5 7 11 -1 21 -8 10 -8 14 0 14 6 0 11 8 11 18 0 14 -2 15 -10 2 -6 -9
-10 -10 -10 -3 0 6 5 15 11 19 6 3 9 15 6 25 -7 26 34 26 50 -1z"/>
<path d="M2245 1401 c0 -60 3 -107 7 -104 5 2 4 -6 -1 -19 -15 -40 7 -48 135
-48 l116 0 -4 -30 c-3 -16 -1 -30 4 -30 5 0 7 -4 4 -8 -3 -5 1 -9 9 -9 8 0 12
4 9 9 -3 4 0 8 5 8 15 0 14 97 -1 102 -7 3 -11 42 -12 119 l-1 114 -27 1 c-24
1 -26 -1 -15 -14 6 -9 7 -13 1 -9 -7 4 -11 -5 -11 -23 0 -18 4 -27 11 -23 6 4
5 -1 -3 -10 -11 -14 -11 -17 0 -17 10 0 10 -3 1 -12 -13 -13 -16 -32 -4 -24 4
2 8 -4 8 -14 0 -10 -4 -16 -8 -14 -10 6 -11 -10 -1 -20 11 -10 12 -37 2 -30
-5 3 -9 -2 -9 -10 0 -10 -9 -16 -26 -16 -14 0 -23 4 -19 10 3 6 2 10 -3 10
-13 0 -12 52 2 69 8 12 8 13 -1 7 -16 -9 -16 -1 -2 26 7 13 7 18 1 14 -14 -8
-12 34 2 53 8 11 8 13 -1 7 -9 -5 -12 0 -10 16 1 17 -4 24 -20 26 -22 3 -23 0
-24 -55 0 -32 0 -86 1 -120 l1 -63 -30 0 -31 0 0 120 c0 113 -1 120 -20 120
-11 0 -20 -6 -20 -12 0 -10 -2 -10 -8 -1 -4 7 -8 -37 -7 -96z"/>
<path d="M2607 1503 c-4 -3 -1 -13 6 -21 9 -13 9 -14 0 -8 -16 9 -17 -6 -1
-22 8 -8 8 -15 -3 -28 -8 -10 -9 -15 -2 -11 12 8 12 -17 0 -29 -4 -4 -7 -14
-7 -23 0 -14 2 -14 10 -1 6 9 10 10 10 3 0 -6 -5 -15 -10 -18 -8 -5 -8 -11 0
-20 8 -9 8 -15 0 -20 -5 -3 -10 -14 -10 -23 0 -15 2 -15 10 -2 5 8 10 10 10 4
0 -6 -3 -14 -7 -18 -4 -3 -8 -13 -9 -20 -1 -11 15 -14 75 -12 60 1 76 4 76 16
0 11 -13 16 -48 18 l-48 3 3 46 c2 35 7 47 21 49 9 1 15 -2 11 -7 -3 -5 2 -9
10 -9 9 0 16 6 16 13 0 8 4 7 10 -3 8 -12 10 -11 10 8 0 20 -5 24 -26 21 -4 0
-11 5 -15 13 -5 7 -9 8 -9 2 0 -6 -6 -11 -13 -11 -8 0 -14 15 -16 39 -2 38 -2
38 36 38 27 0 42 6 51 20 12 19 10 20 -61 20 -41 0 -77 -3 -80 -7z"/>
</g>
</svg>
